<?xml version="1.0" encoding="UTF-8" standalone="no"?>
<!DOCTYPE svg PUBLIC "-//W3C//DTD SVG 1.0//EN" "http://www.w3.org/TR/2001/PR-SVG-20010719/DTD/svg10.dtd">
<svg width="41cm" height="33cm" viewBox="126 101 818 658" xmlns="http://www.w3.org/2000/svg" xmlns:xlink="http://www.w3.org/1999/xlink">
  <g>
    <rect style="fill: #ffffff" x="316" y="641" width="110.7" height="18"/>
    <rect style="fill: none; fill-opacity:0; stroke-width: 2; stroke: #000000" x="316" y="641" width="110.7" height="18"/>
    <text style="fill: #000000;text-anchor:middle;font-size:11.2;font-family:sanserif;font-style:normal;font-weight:700" x="371.35" y="655">show</text>
    <rect style="fill: #ffffff" x="316" y="659" width="110.7" height="100"/>
    <rect style="fill: none; fill-opacity:0; stroke-width: 2; stroke: #000000" x="316" y="659" width="110.7" height="100"/>
    <polygon style="fill: #000000" points="319,669 321,672 323,669 321,666 "/>
    <text style="fill: #000000;text-anchor:start;font-size:12.8;font-family:monospace;font-style:normal;font-weight:700" x="325" y="675">sid</text>
    <line style="fill: none; fill-opacity:0; stroke-width: 1; stroke: #000000" x1="325" y1="676.6" x2="419.7" y2="676.6"/>
    <ellipse style="fill: #000000" cx="321" cy="685" rx="2" ry="2"/>
    <text style="fill: #000000;text-anchor:start;font-size:12.8;font-family:monospace;font-style:normal;font-weight:normal" x="325" y="691">title</text>
    <ellipse style="fill: #000000" cx="321" cy="701" rx="2" ry="2"/>
    <text style="fill: #000000;text-anchor:start;font-size:12.8;font-family:monospace;font-style:normal;font-weight:normal" x="325" y="707">ttime</text>
    <ellipse style="fill: none; fill-opacity:0; stroke-width: 0.2; stroke: #000000" cx="321" cy="717" rx="2" ry="2"/>
    <text style="fill: #000000;text-anchor:start;font-size:12.8;font-family:monospace;font-style:normal;font-weight:normal" x="325" y="723">duration</text>
    <ellipse style="fill: none; fill-opacity:0; stroke-width: 0.2; stroke: #000000" cx="321" cy="733" rx="2" ry="2"/>
    <text style="fill: #000000;text-anchor:start;font-size:12.8;font-family:monospace;font-style:normal;font-weight:normal" x="325" y="739">description</text>
    <ellipse style="fill: none; fill-opacity:0; stroke-width: 0.2; stroke: #000000" cx="321" cy="749" rx="2" ry="2"/>
    <text style="fill: #000000;text-anchor:start;font-size:12.8;font-family:monospace;font-style:normal;font-weight:normal" x="325" y="755">file</text>
  </g>
  <g>
    <rect style="fill: #ffffff" x="385" y="123" width="79.9" height="18"/>
    <rect style="fill: none; fill-opacity:0; stroke-width: 2; stroke: #000000" x="385" y="123" width="79.9" height="18"/>
    <text style="fill: #000000;text-anchor:middle;font-size:11.2;font-family:sanserif;font-style:normal;font-weight:700" x="424.95" y="137">user</text>
    <rect style="fill: #ffffff" x="385" y="141" width="79.9" height="100"/>
    <rect style="fill: none; fill-opacity:0; stroke-width: 2; stroke: #000000" x="385" y="141" width="79.9" height="100"/>
    <polygon style="fill: #000000" points="388,151 390,154 392,151 390,148 "/>
    <text style="fill: #000000;text-anchor:start;font-size:12.8;font-family:monospace;font-style:normal;font-weight:normal" x="394" y="157">uid</text>
    <line style="fill: none; fill-opacity:0; stroke-width: 1; stroke: #000000" x1="394" y1="158.6" x2="457.9" y2="158.6"/>
    <ellipse style="fill: none; fill-opacity:0; stroke-width: 0.2; stroke: #000000" cx="390" cy="167" rx="2" ry="2"/>
    <text style="fill: #000000;text-anchor:start;font-size:12.8;font-family:monospace;font-style:normal;font-weight:normal" x="394" y="173">name</text>
    <ellipse style="fill: none; fill-opacity:0; stroke-width: 0.2; stroke: #000000" cx="390" cy="183" rx="2" ry="2"/>
    <text style="fill: #000000;text-anchor:start;font-size:12.8;font-family:monospace;font-style:normal;font-weight:normal" x="394" y="189">pass</text>
    <ellipse style="fill: none; fill-opacity:0; stroke-width: 0.2; stroke: #000000" cx="390" cy="199" rx="2" ry="2"/>
    <text style="fill: #000000;text-anchor:start;font-size:12.8;font-family:monospace;font-style:normal;font-weight:normal" x="394" y="205">mail</text>
    <ellipse style="fill: none; fill-opacity:0; stroke-width: 0.2; stroke: #000000" cx="390" cy="215" rx="2" ry="2"/>
    <text style="fill: #000000;text-anchor:start;font-size:12.8;font-family:monospace;font-style:normal;font-weight:normal" x="394" y="221">created</text>
    <ellipse style="fill: none; fill-opacity:0; stroke-width: 0.2; stroke: #000000" cx="390" cy="231" rx="2" ry="2"/>
    <text style="fill: #000000;text-anchor:start;font-size:12.8;font-family:monospace;font-style:normal;font-weight:normal" x="394" y="237">access</text>
  </g>
  <g>
    <rect style="fill: #ffffff" x="711" y="639" width="79.9" height="18"/>
    <rect style="fill: none; fill-opacity:0; stroke-width: 2; stroke: #000000" x="711" y="639" width="79.9" height="18"/>
    <text style="fill: #000000;text-anchor:middle;font-size:11.2;font-family:sanserif;font-style:normal;font-weight:700" x="750.95" y="653">comment</text>
    <rect style="fill: #ffffff" x="711" y="657" width="79.9" height="100"/>
    <rect style="fill: none; fill-opacity:0; stroke-width: 2; stroke: #000000" x="711" y="657" width="79.9" height="100"/>
    <polygon style="fill: #000000" points="714,667 716,670 718,667 716,664 "/>
    <text style="fill: #000000;text-anchor:start;font-size:12.8;font-family:monospace;font-style:normal;font-weight:normal" x="720" y="673">cid</text>
    <line style="fill: none; fill-opacity:0; stroke-width: 1; stroke: #000000" x1="720" y1="674.6" x2="783.9" y2="674.6"/>
    <ellipse style="fill: none; fill-opacity:0; stroke-width: 0.2; stroke: #000000" cx="716" cy="683" rx="2" ry="2"/>
    <text style="fill: #000000;text-anchor:start;font-size:12.8;font-family:monospace;font-style:normal;font-weight:normal" x="720" y="689">pid</text>
    <ellipse style="fill: none; fill-opacity:0; stroke-width: 0.2; stroke: #000000" cx="716" cy="699" rx="2" ry="2"/>
    <text style="fill: #000000;text-anchor:start;font-size:12.8;font-family:monospace;font-style:normal;font-weight:normal" x="720" y="705">subject</text>
    <ellipse style="fill: none; fill-opacity:0; stroke-width: 0.2; stroke: #000000" cx="716" cy="715" rx="2" ry="2"/>
    <text style="fill: #000000;text-anchor:start;font-size:12.8;font-family:monospace;font-style:normal;font-weight:normal" x="720" y="721">created</text>
    <ellipse style="fill: none; fill-opacity:0; stroke-width: 0.2; stroke: #000000" cx="716" cy="731" rx="2" ry="2"/>
    <text style="fill: #000000;text-anchor:start;font-size:12.8;font-family:monospace;font-style:normal;font-weight:normal" x="720" y="737">name</text>
    <ellipse style="fill: none; fill-opacity:0; stroke-width: 0.2; stroke: #000000" cx="716" cy="747" rx="2" ry="2"/>
    <text style="fill: #000000;text-anchor:start;font-size:12.8;font-family:monospace;font-style:normal;font-weight:normal" x="720" y="753">mail</text>
  </g>
  <g>
    <rect style="fill: #ffffff" x="324" y="440" width="79.9" height="18"/>
    <rect style="fill: none; fill-opacity:0; stroke-width: 2; stroke: #000000" x="324" y="440" width="79.9" height="18"/>
    <text style="fill: #000000;text-anchor:middle;font-size:11.2;font-family:sanserif;font-style:normal;font-weight:700" x="363.95" y="454">poll</text>
    <rect style="fill: #ffffff" x="324" y="458" width="79.9" height="52"/>
    <rect style="fill: none; fill-opacity:0; stroke-width: 2; stroke: #000000" x="324" y="458" width="79.9" height="52"/>
    <polygon style="fill: #000000" points="327,468 329,471 331,468 329,465 "/>
    <text style="fill: #000000;text-anchor:start;font-size:12.8;font-family:monospace;font-style:normal;font-weight:normal" x="333" y="474">pollid</text>
    <line style="fill: none; fill-opacity:0; stroke-width: 1; stroke: #000000" x1="333" y1="475.6" x2="396.9" y2="475.6"/>
    <ellipse style="fill: none; fill-opacity:0; stroke-width: 0.2; stroke: #000000" cx="329" cy="484" rx="2" ry="2"/>
    <text style="fill: #000000;text-anchor:start;font-size:12.8;font-family:monospace;font-style:normal;font-weight:normal" x="333" y="490">runtime</text>
    <ellipse style="fill: none; fill-opacity:0; stroke-width: 0.2; stroke: #000000" cx="329" cy="500" rx="2" ry="2"/>
    <text style="fill: #000000;text-anchor:start;font-size:12.8;font-family:monospace;font-style:normal;font-weight:normal" x="333" y="506">active</text>
  </g>
  <g>
    <rect style="fill: #ffffff" x="644" y="423" width="79.9" height="18"/>
    <rect style="fill: none; fill-opacity:0; stroke-width: 2; stroke: #000000" x="644" y="423" width="79.9" height="18"/>
    <text style="fill: #000000;text-anchor:middle;font-size:11.2;font-family:sanserif;font-style:normal;font-weight:700" x="683.95" y="437">poll_choice</text>
    <rect style="fill: #ffffff" x="644" y="441" width="79.9" height="68"/>
    <rect style="fill: none; fill-opacity:0; stroke-width: 2; stroke: #000000" x="644" y="441" width="79.9" height="68"/>
    <polygon style="fill: #000000" points="647,451 649,454 651,451 649,448 "/>
    <text style="fill: #000000;text-anchor:start;font-size:12.8;font-family:monospace;font-style:normal;font-weight:normal" x="653" y="457">chid</text>
    <line style="fill: none; fill-opacity:0; stroke-width: 1; stroke: #000000" x1="653" y1="458.6" x2="716.9" y2="458.6"/>
    <ellipse style="fill: none; fill-opacity:0; stroke-width: 0.2; stroke: #000000" cx="649" cy="467" rx="2" ry="2"/>
    <text style="fill: #000000;text-anchor:start;font-size:12.8;font-family:monospace;font-style:normal;font-weight:normal" x="653" y="473">chtext</text>
    <ellipse style="fill: none; fill-opacity:0; stroke-width: 0.2; stroke: #000000" cx="649" cy="483" rx="2" ry="2"/>
    <text style="fill: #000000;text-anchor:start;font-size:12.8;font-family:monospace;font-style:normal;font-weight:normal" x="653" y="489">chvotes</text>
    <ellipse style="fill: none; fill-opacity:0; stroke-width: 0.2; stroke: #000000" cx="649" cy="499" rx="2" ry="2"/>
    <text style="fill: #000000;text-anchor:start;font-size:12.8;font-family:monospace;font-style:normal;font-weight:normal" x="653" y="505">weight</text>
  </g>
  <text style="fill: #000000;text-anchor:start;font-size:12.8;font-family:sanserif;font-style:normal;font-weight:normal" x="340" y="458">
    <tspan x="340" y="458"></tspan>
  </text>
  <g>
    <rect style="fill: #ffffff" x="800" y="171" width="56.8" height="18"/>
    <rect style="fill: none; fill-opacity:0; stroke-width: 2; stroke: #000000" x="800" y="171" width="56.8" height="18"/>
    <text style="fill: #000000;text-anchor:middle;font-size:11.2;font-family:sanserif;font-style:normal;font-weight:700" x="828.4" y="185">role</text>
    <rect style="fill: #ffffff" x="800" y="189" width="56.8" height="36"/>
    <rect style="fill: none; fill-opacity:0; stroke-width: 2; stroke: #000000" x="800" y="189" width="56.8" height="36"/>
    <polygon style="fill: #000000" points="803,199 805,202 807,199 805,196 "/>
    <text style="fill: #000000;text-anchor:start;font-size:12.8;font-family:monospace;font-style:normal;font-weight:normal" x="809" y="205">rid</text>
    <line style="fill: none; fill-opacity:0; stroke-width: 1; stroke: #000000" x1="809" y1="206.6" x2="849.8" y2="206.6"/>
    <ellipse style="fill: none; fill-opacity:0; stroke-width: 0.2; stroke: #000000" cx="805" cy="215" rx="2" ry="2"/>
    <text style="fill: #000000;text-anchor:start;font-size:12.8;font-family:monospace;font-style:normal;font-weight:normal" x="809" y="221">name</text>
  </g>
  <g>
    <rect style="fill: #ffffff" x="384.302" y="267.886" width="95.3" height="18"/>
    <rect style="fill: none; fill-opacity:0; stroke-width: 2; stroke: #000000" x="384.302" y="267.886" width="95.3" height="18"/>
    <text style="fill: #000000;text-anchor:middle;font-size:11.2;font-family:sanserif;font-style:normal;font-weight:700" x="431.952" y="281.886">Profile</text>
    <rect style="fill: #ffffff" x="384.302" y="285.886" width="95.3" height="100"/>
    <rect style="fill: none; fill-opacity:0; stroke-width: 2; stroke: #000000" x="384.302" y="285.886" width="95.3" height="100"/>
    <ellipse style="fill: none; fill-opacity:0; stroke-width: 0.2; stroke: #000000" cx="389.302" cy="295.886" rx="2" ry="2"/>
    <text style="fill: #000000;text-anchor:start;font-size:12.8;font-family:monospace;font-style:normal;font-weight:normal" x="393.302" y="301.886">fname</text>
    <ellipse style="fill: none; fill-opacity:0; stroke-width: 0.2; stroke: #000000" cx="389.302" cy="311.886" rx="2" ry="2"/>
    <text style="fill: #000000;text-anchor:start;font-size:12.8;font-family:monospace;font-style:normal;font-weight:normal" x="393.302" y="317.886">lname</text>
    <ellipse style="fill: none; fill-opacity:0; stroke-width: 0.2; stroke: #000000" cx="389.302" cy="327.886" rx="2" ry="2"/>
    <text style="fill: #000000;text-anchor:start;font-size:12.8;font-family:monospace;font-style:normal;font-weight:normal" x="393.302" y="333.886">gender</text>
    <ellipse style="fill: none; fill-opacity:0; stroke-width: 0.2; stroke: #000000" cx="389.302" cy="343.886" rx="2" ry="2"/>
    <text style="fill: #000000;text-anchor:start;font-size:12.8;font-family:monospace;font-style:normal;font-weight:normal" x="393.302" y="349.886">about</text>
    <ellipse style="fill: none; fill-opacity:0; stroke-width: 0.2; stroke: #000000" cx="389.302" cy="359.886" rx="2" ry="2"/>
    <text style="fill: #000000;text-anchor:start;font-size:12.8;font-family:monospace;font-style:normal;font-weight:normal" x="393.302" y="365.886">phone</text>
    <ellipse style="fill: none; fill-opacity:0; stroke-width: 0.2; stroke: #000000" cx="389.302" cy="375.886" rx="2" ry="2"/>
    <text style="fill: #000000;text-anchor:start;font-size:12.8;font-family:monospace;font-style:normal;font-weight:normal" x="393.302" y="381.886">fbprofile</text>
  </g>
  <g>
    <rect style="fill: #ffffff" x="801.35" y="283.798" width="79.9" height="18"/>
    <rect style="fill: none; fill-opacity:0; stroke-width: 2; stroke: #000000" x="801.35" y="283.798" width="79.9" height="18"/>
    <text style="fill: #000000;text-anchor:middle;font-size:11.2;font-family:sanserif;font-style:normal;font-weight:700" x="841.3" y="297.798">news_item</text>
    <rect style="fill: #ffffff" x="801.35" y="301.798" width="79.9" height="68"/>
    <rect style="fill: none; fill-opacity:0; stroke-width: 2; stroke: #000000" x="801.35" y="301.798" width="79.9" height="68"/>
    <polygon style="fill: #000000" points="804.35,311.798 806.35,314.798 808.35,311.798 806.35,308.798 "/>
    <text style="fill: #000000;text-anchor:start;font-size:12.8;font-family:monospace;font-style:normal;font-weight:normal" x="810.35" y="317.798">nid</text>
    <line style="fill: none; fill-opacity:0; stroke-width: 1; stroke: #000000" x1="810.35" y1="319.398" x2="874.25" y2="319.398"/>
    <ellipse style="fill: none; fill-opacity:0; stroke-width: 0.2; stroke: #000000" cx="806.35" cy="327.798" rx="2" ry="2"/>
    <text style="fill: #000000;text-anchor:start;font-size:12.8;font-family:monospace;font-style:normal;font-weight:normal" x="810.35" y="333.798">heading</text>
    <ellipse style="fill: none; fill-opacity:0; stroke-width: 0.2; stroke: #000000" cx="806.35" cy="343.798" rx="2" ry="2"/>
    <text style="fill: #000000;text-anchor:start;font-size:12.8;font-family:monospace;font-style:normal;font-weight:normal" x="810.35" y="349.798">body</text>
    <ellipse style="fill: none; fill-opacity:0; stroke-width: 0.2; stroke: #000000" cx="806.35" cy="359.798" rx="2" ry="2"/>
    <text style="fill: #000000;text-anchor:start;font-size:12.8;font-family:monospace;font-style:normal;font-weight:normal" x="810.35" y="365.798">created</text>
  </g>
  <g>
    <polygon style="fill: #ffffff" points="633,165.843 701.313,200 633,234.157 564.687,200 "/>
    <polygon style="fill: none; fill-opacity:0; stroke-width: 2; stroke: #000000" points="633,165.843 701.313,200 633,234.157 564.687,200 "/>
    <text style="fill: #000000;text-anchor:middle;font-size:12.7998;font-family:sanserif;font-style:normal;font-weight:normal" x="633" y="203.9">
      <tspan x="633" y="203.9">user role</tspan>
    </text>
  </g>
  <g>
    <polygon style="fill: #ffffff" points="643,288.018 714.963,324 643,359.982 571.037,324 "/>
    <polygon style="fill: none; fill-opacity:0; stroke-width: 2; stroke: #000000" points="643,288.018 714.963,324 643,359.982 571.037,324 "/>
    <text style="fill: #000000;text-anchor:middle;font-size:12.7998;font-family:sanserif;font-style:normal;font-weight:normal" x="643" y="327.9">
      <tspan x="643" y="327.9">posted by</tspan>
    </text>
  </g>
  <g>
    <polygon style="fill: #ffffff" points="194,281.72 260.2,242 326.4,281.72 260.2,321.44 "/>
    <polygon style="fill: none; fill-opacity:0; stroke-width: 2; stroke: #000000" points="194,281.72 260.2,242 326.4,281.72 260.2,321.44 "/>
    <polygon style="fill: none; fill-opacity:0; stroke-width: 2; stroke: #000000" points="202,281.72 260.2,246.8 318.4,281.72 260.2,316.64 "/>
    <text style="fill: #000000;text-anchor:end;font-size:12.7998;font-family:monospace;font-style:normal;font-weight:normal" x="188" y="275.72"></text>
    <text style="fill: #000000;text-anchor:start;font-size:12.7998;font-family:monospace;font-style:normal;font-weight:normal" x="332.4" y="275.72"></text>
    <text style="fill: #000000;text-anchor:middle;font-size:12.7998;font-family:monospace;font-style:normal;font-weight:normal" x="260.2" y="285.72">user profile</text>
  </g>
  <g>
    <polygon style="fill: #ffffff" points="470,483.55 509.25,460 548.5,483.55 509.25,507.1 "/>
    <polygon style="fill: none; fill-opacity:0; stroke-width: 2; stroke: #000000" points="470,483.55 509.25,460 548.5,483.55 509.25,507.1 "/>
    <text style="fill: #000000;text-anchor:end;font-size:12.7998;font-family:monospace;font-style:normal;font-weight:normal" x="464" y="477.55"></text>
    <text style="fill: #000000;text-anchor:start;font-size:12.7998;font-family:monospace;font-style:normal;font-weight:normal" x="554.5" y="477.55"></text>
    <text style="fill: #000000;text-anchor:middle;font-size:12.7998;font-family:monospace;font-style:normal;font-weight:normal" x="509.25" y="487.55">voted</text>
  </g>
  <g>
    <polygon style="fill: #ffffff" points="487,643.79 541.65,611 596.3,643.79 541.65,676.58 "/>
    <polygon style="fill: none; fill-opacity:0; stroke-width: 2; stroke: #000000" points="487,643.79 541.65,611 596.3,643.79 541.65,676.58 "/>
    <text style="fill: #000000;text-anchor:end;font-size:12.7998;font-family:monospace;font-style:normal;font-weight:normal" x="481" y="637.79"></text>
    <text style="fill: #000000;text-anchor:start;font-size:12.7998;font-family:monospace;font-style:normal;font-weight:normal" x="602.3" y="637.79"></text>
    <text style="fill: #000000;text-anchor:middle;font-size:12.7998;font-family:monospace;font-style:normal;font-weight:normal" x="541.65" y="647.79">commented</text>
  </g>
  <g>
    <polygon style="fill: #ffffff" points="850,697.86 893.1,672 936.2,697.86 893.1,723.72 "/>
    <polygon style="fill: none; fill-opacity:0; stroke-width: 2; stroke: #000000" points="850,697.86 893.1,672 936.2,697.86 893.1,723.72 "/>
    <text style="fill: #000000;text-anchor:end;font-size:12.7998;font-family:monospace;font-style:normal;font-weight:normal" x="844" y="691.86"></text>
    <text style="fill: #000000;text-anchor:start;font-size:12.7998;font-family:monospace;font-style:normal;font-weight:normal" x="942.2" y="691.86"></text>
    <text style="fill: #000000;text-anchor:middle;font-size:12.7998;font-family:monospace;font-style:normal;font-weight:normal" x="893.1" y="701.86">parent</text>
  </g>
  <text style="fill: #000000;text-anchor:start;font-size:12.7998;font-family:sanserif;font-style:normal;font-weight:normal" x="893.1" y="697.86">
    <tspan x="893.1" y="697.86"></tspan>
  </text>
  <g>
    <polygon style="fill: #ffffff" points="156,683.24 191.4,662 226.8,683.24 191.4,704.48 "/>
    <polygon style="fill: none; fill-opacity:0; stroke-width: 2; stroke: #000000" points="156,683.24 191.4,662 226.8,683.24 191.4,704.48 "/>
    <text style="fill: #000000;text-anchor:end;font-size:12.7998;font-family:monospace;font-style:normal;font-weight:normal" x="150" y="677.24"></text>
    <text style="fill: #000000;text-anchor:start;font-size:12.7998;font-family:monospace;font-style:normal;font-weight:normal" x="232.8" y="677.24"></text>
    <text style="fill: #000000;text-anchor:middle;font-size:12.7998;font-family:monospace;font-style:normal;font-weight:normal" x="191.4" y="687.24">rj's</text>
  </g>
  <g>
    <ellipse style="fill: #ffffff" cx="508.65" cy="558" rx="54.65" ry="18"/>
    <ellipse style="fill: none; fill-opacity:0; stroke-width: 2; stroke: #000000" cx="508.65" cy="558" rx="54.65" ry="18"/>
    <text style="fill: #000000;text-anchor:middle;font-size:12.7998;font-family:monospace;font-style:normal;font-weight:normal" x="508.65" y="562">timestamp</text>
  </g>
  <g>
    <ellipse style="fill: #ffffff" cx="632.5" cy="120" rx="58.5" ry="18"/>
    <ellipse style="fill: none; fill-opacity:0; stroke-width: 2; stroke: #000000" cx="632.5" cy="120" rx="58.5" ry="18"/>
    <text style="fill: #000000;text-anchor:middle;font-size:12.7998;font-family:monospace;font-style:normal;font-weight:normal" x="632.5" y="124">permission</text>
  </g>
  <g>
    <polyline style="fill: none; fill-opacity:0; stroke-width: 2; stroke: #000000" points="260.2,244.5 257.5,244.5 257.5,164.5 385,164.5 "/>
    <polyline style="fill: none; fill-opacity:0; stroke-width: 2; stroke: #000000" points="260.2,239.5 262.5,239.5 262.5,169.5 385,169.5 "/>
  </g>
  <g>
    <polyline style="fill: none; fill-opacity:0; stroke-width: 2; stroke: #000000" points="260.2,318.94 263.5,318.94 263.5,341.386 384.302,341.386 "/>
    <polyline style="fill: none; fill-opacity:0; stroke-width: 2; stroke: #000000" points="260.2,323.94 258.5,323.94 258.5,346.386 384.302,346.386 "/>
  </g>
  <polyline style="fill: none; fill-opacity:0; stroke-width: 2; stroke: #000000" points="541.65,611 127,611 127,151 385,151 "/>
  <polyline style="fill: none; fill-opacity:0; stroke-width: 2; stroke: #000000" points="127,611 127,683 156,683 156,683.24 "/>
  <g>
    <polyline style="fill: none; fill-opacity:0; stroke-width: 2; stroke: #000000" points="226.8,680.74 317.5,680.74 317.5,682.5 316,682.5 "/>
    <polyline style="fill: none; fill-opacity:0; stroke-width: 2; stroke: #000000" points="226.8,685.74 312.5,685.74 312.5,687.5 316,687.5 "/>
  </g>
  <g>
    <polyline style="fill: none; fill-opacity:0; stroke-width: 2; stroke: #000000" points="403.9,465.5 439.45,465.5 439.45,481.05 470,481.05 "/>
    <polyline style="fill: none; fill-opacity:0; stroke-width: 2; stroke: #000000" points="403.9,470.5 434.45,470.5 434.45,486.05 470,486.05 "/>
  </g>
  <polyline style="fill: none; fill-opacity:0; stroke-width: 2; stroke: #000000" points="548.5,483.55 596.25,483.55 596.25,451 644,451 "/>
  <polyline style="fill: none; fill-opacity:0; stroke-width: 2; stroke: #000000" points="509.25,507.1 509.25,535 508.65,535 508.65,539.021 "/>
  <g>
    <polyline style="fill: none; fill-opacity:0; stroke-width: 2; stroke: #000000" points="717.463,324 717.463,339.5 803.85,339.5 803.85,343.798 "/>
    <polyline style="fill: none; fill-opacity:0; stroke-width: 2; stroke: #000000" points="712.463,324 712.463,344.5 798.85,344.5 798.85,343.798 "/>
  </g>
  <polyline style="fill: none; fill-opacity:0; stroke-width: 2; stroke: #000000" points="464.9,183 517.968,183 517.968,324 571.037,324 "/>
  <polyline style="fill: none; fill-opacity:0; stroke-width: 2; stroke: #000000" points="465,208 508,208 508,460 509.25,460 "/>
  <polyline style="fill: none; fill-opacity:0; stroke-width: 2; stroke: #000000" points="632.5,138 632.5,151.922 633,151.922 633,165.843 "/>
  <g>
    <polyline style="fill: none; fill-opacity:0; stroke-width: 2; stroke: #000000" points="703.813,200 703.813,197.5 797.5,197.5 797.5,199 "/>
    <polyline style="fill: none; fill-opacity:0; stroke-width: 2; stroke: #000000" points="698.813,200 698.813,202.5 802.5,202.5 802.5,199 "/>
  </g>
  <g>
    <polyline style="fill: none; fill-opacity:0; stroke-width: 2; stroke: #000000" points="464.9,148.5 548.5,148.5 548.5,197.5 564.687,197.5 "/>
    <polyline style="fill: none; fill-opacity:0; stroke-width: 2; stroke: #000000" points="464.9,153.5 543.5,153.5 543.5,202.5 564.687,202.5 "/>
  </g>
  <g>
    <polyline style="fill: none; fill-opacity:0; stroke-width: 2; stroke: #000000" points="596.3,641.29 656.15,641.29 656.15,696.5 711,696.5 "/>
    <polyline style="fill: none; fill-opacity:0; stroke-width: 2; stroke: #000000" points="596.3,646.29 651.15,646.29 651.15,701.5 711,701.5 "/>
  </g>
  <polyline style="fill: none; fill-opacity:0; stroke-width: 2; stroke: #000000" points="487,643.79 456.85,643.79 456.85,685 426.7,685 "/>
  <polyline style="fill: none; fill-opacity:0; stroke-width: 2; stroke: #000000" points="790.9,667 842,667 842,672 893.1,672 "/>
  <polyline style="fill: none; fill-opacity:0; stroke-width: 2; stroke: #000000" points="790.9,731 842,731 842,723.72 893.1,723.72 "/>
</svg>
